<mxfile host="app.diagrams.net" modified="2024-04-20T22:46:05.812Z" agent="Mozilla/5.0 (Windows NT 10.0; Win64; x64) AppleWebKit/537.36 (KHTML, like Gecko) Chrome/124.0.0.0 Safari/537.36" version="24.2.7" etag="uK3waTHF6y7WW52kSoAk" type="github">
  <diagram name="PÃ¡gina-1" id="u5VWJeHZDkZvFIDJOj_d">
    <mxGraphModel>
      <root>
        <mxCell id="0" />
        <mxCell id="1" parent="0" />
      </root>
    </mxGraphModel>
  </diagram>
</mxfile>
